<?xml version="1.0" encoding="utf-8"?>

<svg xmlns="http://www.w3.org/2000/svg" viewBox="0 0 1245 1491.84">
  <defs>
    <style>.cls-1{fill:#f10823;}.cls-2{fill:#f4575d;}.cls-3{fill:#ee5c5d;}.cls-4{fill:#b90423;}.cls-5{fill:#560106;}.cls-6{fill:#1b6022;}.cls-7{fill:#2d9606;}</style>
  </defs>
  <g id="face">
    <polygon class="cls-1" points="329 336.84 870 322.84 665 517.84 329 336.84"/>
    <polygon class="cls-2" points="888 329.84 684 529.84 1235 725.84 888 329.84"/>
    <polygon class="cls-3" points="324 354.84 655 532.84 199 854.84 324 354.84"/>
    <polygon class="cls-4" points="313 337.84 184 853.84 3 749.84 313 337.84"/>
    <polygon class="cls-2" points="660 548.84 471 946.84 208 867.84 660 548.84"/>
    <polygon class="cls-1" points="672 560.84 490 950.84 1006 876.84 672 560.84"/>
    <polyline class="cls-4" points="684 547.84 1021 870.84 1231 740.84"/>
    <polygon class="cls-2" points="0 757.84 166 980.84 174 1276.84 0 757.84"/>
    <polygon class="cls-2" points="1121 968.84 1245 744.84 1158 1242.84 1121 968.84"/>
    <polygon class="cls-4" points="183 1277.84 583 1277.84 685 1490.84 774 1262.84 1156 1250.84 685 1491.84 183 1277.84"/>
  </g>
  <g id="eyes">
    <rect class="cls-5" x="400" y="1005.84" width="80" height="182" rx="18.17"/>
    <rect class="cls-5" x="840" y="1005.84" width="80" height="182" rx="18.17"/>
  </g>
  <g id="leaf">
    <path class="cls-6" d="M1258.92,558a1.14,1.14,0,0,1-1.16-.87c-1.89-7.53-13.18-60.75,32.24-107.1,49-50,88-51,106-58,16.88-6.56,77.7-38.61,88.53-46.71a1.14,1.14,0,0,1,1.82.71c1.49,8.75,7,44.21,2.65,66-5,25-18,97-121,148,0,0-58.43,30.36-98.62,24.54a1.15,1.15,0,0,1-.41-2.14c10.63-6.15,48.67-28.27,57-34.4,15-11,43-29,52-52,2.63-6.72,3.64-10.71,4-13a1.15,1.15,0,0,0-2-1C1368,493.94,1303.22,556.23,1258.92,558Z" transform="translate(-377 -254.16)"/>
    <path class="cls-7" d="M1223.21,254.27a.28.28,0,0,0-.44,0c-3.15,3.48-37,41.93-42.77,86.74-4.94,38.7,5,74,17,111,10.49,32.34,18.41,48.64,41,75l5.58,6.51a.29.29,0,0,0,.52-.14c.31-2,1.27-9.4,2.9-31.37.68-9.19-10.71-26.25-14-46-4-24-.24-45,0-52.22a.3.3,0,0,1,.58-.07c3,9.62,13.18,53.8,16.47,59.29,6,10,7.1,13.6,8,15,.12.18,1.13-2.2,1.24-2.38,2.43-3.82,22.56-35.23,34.76-44.62,13-10,20-15,19-20.93a.26.26,0,0,0,0-.12c-1.32-1.84-39.21-54.32-53-74.95C1246.08,314.12,1236.11,270.48,1223.21,254.27Z" transform="translate(-377 -254.16)"/>
  </g>
</svg>
