<?xml version="1.0" encoding="utf-8"?>
<!-- Generator: Adobe Illustrator 24.2.3, SVG Export Plug-In . SVG Version: 6.00 Build 0)  -->
<svg version="1.1" xmlns="http://www.w3.org/2000/svg" xmlns:xlink="http://www.w3.org/1999/xlink" x="0px" y="0px"
	 viewBox="0 0 2000 2000" style="enable-background:new 0 0 2000 2000;" xml:space="preserve">
<style type="text/css">
	.st0{fill:#FFFFFF;}
	.st1{fill:#F10823;}
	.st2{fill:#F4575D;}
	.st3{fill:#EE5C5D;}
	.st4{fill:#B90423;}
	.st5{fill:#560106;}
	.st6{fill:#1B6022;}
	.st7{fill:#2D9606;}
</style>
<g id="body">
	<polyline class="st0" points="690.5,591.5 1258,576 1622,991 1534.5,1504.5 1062.5,1745.5 550,1526 377.5,1011.5 690.5,591.5 
		690.5,591.5 	"/>
</g>
<g id="face">
	<polygon class="st1" points="706,591 1247,577 1042,772 	"/>
	<polygon class="st2" points="1265,584 1061,784 1612,980 	"/>
	<polygon class="st3" points="701,609 1032,787 576,1109 	"/>
	<polygon class="st4" points="690,592 561,1108 382,1006 	"/>
	<polygon class="st2" points="1037,803 848,1201 585,1122 	"/>
	<polygon class="st1" points="1049,815 867,1205 1383,1131 	"/>
	<polyline class="st4" points="1061,802 1398,1125 1608,995 	"/>
	<polygon class="st2" points="377,1012 543,1235 551,1531 	"/>
	<polygon class="st2" points="1498,1223 1622,999 1535,1497 	"/>
	<polygon class="st4" points="560,1532 960,1532 1062,1745 1151,1517 1533,1505 1062,1746 	"/>
</g>
<g id="eyes">
	<path class="st5" d="M838.8,1442h-43.7c-10,0-18.2-8.1-18.2-18.2v-145.7c0-10,8.1-18.2,18.2-18.2h43.7c10,0,18.2,8.1,18.2,18.2
		v145.7C857,1433.9,848.9,1442,838.8,1442z"/>
	<path class="st5" d="M1278.8,1442h-43.7c-10,0-18.2-8.1-18.2-18.2v-145.7c0-10,8.1-18.2,18.2-18.2h43.7c10,0,18.2,8.1,18.2,18.2
		v145.7C1297,1433.9,1288.9,1442,1278.8,1442z"/>
</g>
<g id="leaf">
	<path class="st6" d="M1258.9,558c-0.5,0-1-0.3-1.2-0.9c-1.9-7.5-13.2-60.7,32.2-107.1c49-50,88-51,106-58
		c16.9-6.6,77.7-38.6,88.5-46.7c0.7-0.5,1.7-0.1,1.8,0.7c1.5,8.7,7,44.2,2.6,66c-5,25-18,97-121,148c0,0-58.4,30.4-98.6,24.5
		c-1.1-0.2-1.3-1.6-0.4-2.1c10.6-6.2,48.7-28.3,57-34.4c15-11,43-29,52-52c2.6-6.7,3.6-10.7,4-13c0.2-1.1-1.2-1.8-1.9-1
		C1368,493.9,1303.2,556.2,1258.9,558z"/>
	<path class="st7" d="M1223.2,254.3c-0.1-0.1-0.3-0.1-0.4,0c-3.1,3.5-37,41.9-42.8,86.7c-4.9,38.7,5,74,17,111
		c10.5,32.3,18.4,48.6,41,75l5.6,6.5c0.2,0.2,0.5,0.1,0.5-0.1c0.3-2,1.3-9.4,2.9-31.4c0.7-9.2-10.7-26.2-14-46c-4-24-0.2-45,0-52.2
		c0-0.3,0.5-0.4,0.6-0.1c3,9.6,13.2,53.8,16.5,59.3c6,10,7.1,13.6,8,15c0.1,0.2,1.1-2.2,1.2-2.4c2.4-3.8,22.6-35.2,34.8-44.6
		c13-10,19.9-15,19-20.9c0,0,0-0.1,0-0.1c-1.3-1.8-39.2-54.3-53-75C1246.1,314.1,1236.1,270.5,1223.2,254.3z"/>
</g>
</svg>
